<?xml version="1.0" encoding="UTF-8"?>
<svg width="23px" height="23px" viewBox="0 0 23 23" version="1.1" xmlns="http://www.w3.org/2000/svg" xmlns:xlink="http://www.w3.org/1999/xlink">
    <!-- Generator: Sketch 48.2 (47327) - http://www.bohemiancoding.com/sketch -->
    <title>Amazon-color</title>
    <desc>Created with Sketch.</desc>
    <defs></defs>
    <g id="Home-Page" stroke="none" stroke-width="1" fill="none" fill-rule="evenodd" transform="translate(-593.000000, -1047.000000)">
        <g id="Benefit-Copy" transform="translate(92.000000, 808.000000)" fill-rule="nonzero">
            <g id="Group-6" transform="translate(480.000000, 220.000000)">
                <g id="Amazon-color" transform="translate(21.000000, 19.000000)">
                    <path d="M11.4874308,12.6494406 C11.1616069,13.3486948 10.6028746,13.7988812 9.99830406,13.9507192 C9.90662737,13.9507192 9.76663457,14 9.62664181,14 C8.60457062,14 8,13.1502398 8,11.9009057 C8,10.2999467 8.88331731,9.55141184 9.99830406,9.19978689 C10.6028746,9.05061267 11.3015997,9 11.9990858,9 L11.9990858,9.60069261 C11.9990858,10.7501332 12.0449242,11.6491742 11.4874308,12.6494406 Z M12.6390252,6.51113632 C11.9783381,6.56207988 11.2147571,6.61302343 10.45253,6.71491049 C9.28414282,6.87187172 8.11575563,7.07839962 7.15180232,7.5437758 C5.2712811,8.31894388 4,9.97254394 4,12.3999352 C4,15.4510408 5.9306143,17 8.37163647,17 C9.18395666,17 9.84464377,16.8953592 10.45253,16.7425285 C11.4205449,16.4313599 12.2315112,15.8627197 13.1968184,14.8287034 C13.7559655,15.6038714 13.9103063,15.9673605 14.8742596,16.7934721 C15.1287866,16.8953592 15.3833136,16.8953592 15.5850398,16.7425285 C16.1956338,16.224832 17.2638348,15.2940796 17.821628,14.7777598 C18.076155,14.5712319 18.0260619,14.2600632 17.8717211,14.0039686 C17.3139279,13.2797441 16.753427,12.6587835 16.753427,11.2640318 L16.753427,6.61302343 C16.753427,4.64963149 16.9077678,2.84044708 15.4848536,1.49801571 C14.3164664,0.414432656 12.4860383,0 11.0631241,0 L10.45253,0 C7.86258248,0.152830647 5.11964798,1.29011096 4.50770012,4.54636755 C4.40616009,4.96080022 4.71213401,5.11500772 4.91521406,5.16595127 L7.76104246,5.52806351 C8.06566253,5.47574312 8.21864953,5.21689478 8.26874258,4.96080022 C8.52191573,3.82351989 9.43712981,3.25487973 10.45253,3.15023893 L10.656964,3.15023893 C11.267558,3.15023893 11.928245,3.40908723 12.2829582,3.92678384 C12.6891183,4.54636755 12.6390252,5.37385601 12.6390252,6.09808053 L12.6390252,6.51113632 Z" id="Shape" fill="#343B45"></path>
                    <path d="M22.9972323,17.027474 L22.9972323,17.0260723 C22.9861616,16.7779647 22.9349595,16.58873 22.8325553,16.4317353 L22.8214846,16.4163162 L22.80903,16.4008971 C22.705242,16.2859546 22.6056054,16.2425007 22.4976659,16.1948416 C22.175231,16.0686851 21.706109,16.0014017 21.1415021,16 C20.7360368,16 20.2890562,16.0392487 19.839308,16.1387721 L19.8379242,16.1079338 L19.3854083,16.2607233 L19.3771053,16.2649285 L19.1210948,16.3490328 L19.1210948,16.3602467 C18.8208013,16.4864031 18.5481848,16.6433978 18.2949419,16.829829 C18.1371841,16.9489767 18.0071031,17.1073731 18.0001839,17.3498738 C17.9960323,17.4816372 18.0624567,17.6330249 18.1717801,17.7227362 C18.2811035,17.8124474 18.4084168,17.8432857 18.5205079,17.8432857 C18.5468009,17.8432857 18.5717101,17.8418839 18.5938515,17.8376787 L18.6159929,17.836277 L18.632599,17.8334735 C18.8540135,17.7858144 19.1764484,17.7535744 19.5542369,17.7003084 C19.8780556,17.6638632 20.2212481,17.6372301 20.5187738,17.6372301 C20.7291176,17.6358284 20.9187037,17.6512475 21.0487847,17.6792823 C21.1138252,17.6932997 21.1622597,17.7101206 21.1885526,17.7241379 C21.1982395,17.7269414 21.2051587,17.7311466 21.2093102,17.7339501 C21.2148456,17.7521727 21.2231487,17.7998318 21.2217648,17.8657135 C21.2245325,18.1180263 21.1193606,18.5862069 20.9740574,19.0431735 C20.8329056,19.5001402 20.6613094,19.9585085 20.5478345,20.2626857 C20.5201576,20.3327726 20.5021677,20.4098682 20.5021677,20.4939725 C20.4994,20.6159237 20.5492183,20.764508 20.6543902,20.8626297 C20.7567944,20.9607513 20.8896431,21 21.0003503,21 L21.0058857,21 C21.1719466,20.9985983 21.3130983,20.9313149 21.4348763,20.8345949 C22.583464,19.7888982 22.9833939,18.1180263 23,17.17746 L22.9972323,17.027474 Z M19.3096589,18.5450998 C19.1968147,18.5437227 19.0813153,18.5712646 18.9737814,18.6235942 C18.8529717,18.6731696 18.7295068,18.7310075 18.6126799,18.78196 L18.4414222,18.8563231 L18.2183889,18.9485885 L18.2183889,18.9513426 C15.7955571,19.9703925 13.250588,20.5680514 10.8954627,20.620381 C10.80917,20.6231352 10.7215498,20.6231352 10.6379123,20.6231352 C6.93396672,20.6258894 3.91239675,18.8439293 0.864275189,17.088134 C0.758068864,17.0302961 0.6478798,17 0.541673476,17 C0.404932829,17 0.264209447,17.0537067 0.161985858,17.1528574 C0.0597622691,17.2533854 -0.00130636866,17.3979803 2.12104161e-05,17.5453293 C-0.00130636866,17.7367455 0.0982620621,17.9130135 0.237657865,18.0273124 C3.09859078,20.6038558 6.23433254,22.9972458 10.4520513,23 C10.5343612,23 10.6179987,22.9972458 10.7016361,22.9958687 C13.3846734,22.9338995 16.4181917,21.993344 18.7733169,20.4592609 L18.7879203,20.4496213 C19.0959186,20.2582052 19.403917,20.0406243 19.6946568,19.7996327 C19.8752076,19.6605462 20,19.4429653 20,19.2171219 C19.9920345,18.8163874 19.6641225,18.5450998 19.3096589,18.5450998 Z" id="Fill-237" fill="#FF9A00"></path>
                </g>
            </g>
        </g>
    </g>
</svg>