<?xml version="1.0" encoding="UTF-8"?>
<svg width="19px" height="23px" viewBox="0 0 19 23" version="1.1" xmlns="http://www.w3.org/2000/svg" xmlns:xlink="http://www.w3.org/1999/xlink">
    <!-- Generator: Sketch 48.2 (47327) - http://www.bohemiancoding.com/sketch -->
    <title>apple</title>
    <desc>Created with Sketch.</desc>
    <defs></defs>
    <g id="Page-1" stroke="none" stroke-width="1" fill="none" fill-rule="evenodd">
        <g id="apple" fill="#000000" fill-rule="nonzero">
            <path d="M18.6017881,17.923983 C18.2606625,18.7275389 17.8568811,19.4672079 17.3890517,20.1472491 C16.7513557,21.0743199 16.2292247,21.7160289 15.8268357,22.0723761 C15.2030632,22.6572967 14.5347355,22.9568555 13.8190679,22.9738921 C13.3052909,22.9738921 12.6856954,22.8248225 11.9644584,22.5224242 C11.2408545,22.2214457 10.5758684,22.0723761 9.9678294,22.0723761 C9.33013337,22.0723761 8.64621134,22.2214457 7.91467097,22.5224242 C7.18201671,22.8248225 6.59179979,22.9824103 6.14053935,22.9980271 C5.45425033,23.0278411 4.77018907,22.7197639 4.08738092,22.0723761 C3.65157555,21.6847952 3.10647076,21.0203709 2.45345889,20.079103 C1.75282867,19.0739482 1.17681372,17.9083662 0.725553276,16.5795174 C0.242268797,15.1441904 0,13.7542942 0,12.4086929 C0,10.8673135 0.326645171,9.53789692 0.980910157,8.42385034 C1.49510479,7.52900702 2.17916606,6.82312711 3.03532171,6.3049329 C3.89147736,5.78673868 4.8165543,5.52267259 5.8127803,5.50577804 C6.35788509,5.50577804 7.07271728,5.67770494 7.9610362,6.01559597 C8.84684889,6.35462276 9.41562363,6.52654966 9.6649934,6.52654966 C9.85142899,6.52654966 10.4832772,6.3255187 11.5544115,5.92473451 C12.5673457,5.55305439 13.4222483,5.39915781 14.1226,5.45977943 C16.0203723,5.61594755 17.4461381,6.37875783 18.394328,7.75303728 C16.6970541,8.80163522 15.8574674,10.2703254 15.8741756,12.1544228 C15.8894914,13.6219772 16.4116225,14.8432119 17.437784,15.8128739 C17.9028287,16.2629221 18.422175,16.6107511 19,16.8577806 C18.8746886,17.228325 18.7424154,17.5832525 18.6017881,17.923983 Z M14.2493038,0.460128069 C14.2493038,1.61039145 13.8371684,2.684388 13.0156823,3.67846907 C12.0243295,4.86023582 10.8252382,5.54311642 9.52492305,5.43536042 C9.5083541,5.29736459 9.49874689,5.15212824 9.49874689,4.99950939 C9.49874689,3.89525882 9.97019639,2.71349206 10.8074161,1.74723732 C11.2253994,1.25800519 11.7569984,0.851215631 12.4016562,0.526712476 C13.0449216,0.207050532 13.6533783,0.030268221 14.2256339,0 C14.2423421,0.153768809 14.2493038,0.307551816 14.2493038,0.460113872 L14.2493038,0.460128069 Z" id="Shape"></path>
        </g>
    </g>
</svg>