<?xml version="1.0" encoding="UTF-8"?>
<svg width="30px" height="15px" viewBox="0 0 30 15" version="1.1" xmlns="http://www.w3.org/2000/svg" xmlns:xlink="http://www.w3.org/1999/xlink">
    <!-- Generator: Sketch 48.2 (47327) - http://www.bohemiancoding.com/sketch -->
    <title>Group 3</title>
    <desc>Created with Sketch.</desc>
    <defs></defs>
    <g id="Page-1" stroke="none" stroke-width="1" fill="none" fill-rule="evenodd">
        <g id="Group-3" fill="#484848">
            <path d="M10.1580668,0.462836968 C9.34158519,2.71974812 8.76524521,5.07622889 8.28496189,7.36632991 C8.36500911,7.43270965 8.47707522,7.56546913 8.47707522,7.68163368 C8.47707522,7.89736783 8.20491467,7.81439316 8.17289579,7.98034251 C7.64458414,10.8512663 7.37242359,12.693304 7.19631971,14.5353418 C7.16430082,14.9004304 7.00420638,15 6.55594195,15 C6.10767752,15 5.53133754,14.8008608 5.57936587,14.1536583 C5.70744142,12.4941648 6.26777196,9.40750692 6.53993251,7.9305577 C5.93157364,7.94715264 5.32321477,7.8807729 4.33062925,7.9305577 C4.17053481,8.97603861 3.94640259,10.0547094 3.73827982,11.9963168 C3.69025149,12.3780003 3.73827982,12.6767091 3.08189262,12.6767091 C2.45752431,12.6767091 1.59301434,12.3614053 1.59301434,11.8635573 C1.59301434,11.6976079 1.62503322,11.5482535 1.62503322,11.3988991 C1.62503322,10.2704435 0.856579915,9.09220315 0.296249378,8.16288679 C0.0400982754,7.81439316 -0.360137823,7.15059576 0.664466588,7.15059576 C1.24080657,7.11740589 1.81714655,7.20038056 2.42550542,7.15059576 C2.68165652,5.59067187 3.1459304,3.83160877 3.59419482,1.65767229 C3.67424204,1.39215333 3.85034593,1.32577359 4.10649703,1.32577359 C4.36264813,1.32577359 5.53133754,1.30917865 5.45129032,1.85681151 C5.29119588,3.01845695 4.63480868,5.45791239 4.50673313,7.1671907 C5.03504478,7.18378563 5.56335643,7.15059576 6.70002694,7.15059576 C7.19631971,4.8438998 7.5965558,2.71974812 8.46106578,0.512621773 C8.7972641,-0.350314846 9.78984962,0.0479635937 10.1580668,0.462836968 Z" id="Home"></path>
            <path d="M2.24940154,7.89736783 L1.67306155,7.89736783 C1.81714655,8.11310199 1.96123155,8.32883614 2.12132598,8.5445703 C2.15334487,8.32883614 2.2013732,8.11310199 2.24940154,7.89736783 Z" id="Path"></path>
            <path d="M14.4165789,9.77259549 C15.8574289,9.90535496 16.6579011,8.39521588 16.9780899,7.98034251 C17.2502505,7.98034251 17.4583733,8.37862095 17.3943355,8.56116523 C16.8179955,10.1044942 15.1690228,10.652127 14.1123995,10.4197979 C13.7922106,11.1167852 13.0877951,11.9631269 12.2713134,11.9631269 C10.7824351,11.9631269 9.83787795,10.917646 9.83787795,9.44069679 C9.83787795,8.5943551 10.0299913,7.00124135 10.8624824,7.00124135 C11.1666618,7.00124135 11.4708412,7.08421602 11.7269923,7.2169755 C11.8070396,6.27106421 12.2713134,5.42472252 13.4400028,5.42472252 C14.5446545,5.42472252 15.1209944,6.12170979 15.1209944,7.08421602 C15.1209944,8.03012731 14.816815,8.9262538 14.4165789,9.77259549 Z M12.9437101,7.2667603 C12.9116912,7.44930459 12.8956817,7.64844381 12.8956817,7.84758303 C12.8956817,8.37862095 12.8956817,8.876469 13.3759651,9.37431705 C13.952305,8.36202601 14.4325884,5.93916551 13.7762012,5.93916551 C13.3119273,5.93916551 12.9917384,6.835292 12.9437101,7.2667603 Z M13.0557762,10.0878992 C12.5114551,9.75600055 11.967134,9.12539302 11.823049,8.49478549 C11.6629546,8.67732978 11.3267562,11.0504055 11.8870868,11.0504055 C12.4954456,11.0504055 12.9437101,10.3866081 13.0557762,10.0878992 Z" id="Combined-Shape"></path>
            <path d="M26.4556807,8.2624564 C26.6157752,8.37862095 26.8078885,8.56116523 26.7118318,8.90965887 C26.4716902,9.78919042 24.9347836,11.8137725 23.9101792,11.8137725 C23.0776881,11.8137725 22.5013481,11.2993295 22.5013481,10.1874689 C22.5013481,9.09220315 23.2377825,7.28335524 22.6934614,7.28335524 C22.101112,7.28335524 20.9804509,10.5691524 20.4361298,10.5691524 C20.1799787,10.5691524 19.6356576,10.4861777 19.6356576,10.0878992 C19.6356576,9.9219499 19.8597898,7.68163368 19.6196482,7.61525394 C19.0913365,7.46589952 18.4669682,10.0381144 17.9866849,11.7142029 C17.8746188,12.1124813 17.7625527,12.1788611 17.4423638,12.1788611 C17.0101088,12.1788611 15.969495,12.0295066 16.1616083,11.432089 C16.4497783,10.5525574 17.1541938,6.07192499 17.4583733,5.93916551 C17.8425999,5.77321616 18.7551382,6.12170979 18.7551382,6.58636797 C18.7551382,6.70253252 18.7231193,6.81869706 18.7071099,6.95145654 C18.9152327,6.85188693 19.1553743,6.78550719 19.395516,6.78550719 C20.3240637,6.78550719 20.7563187,7.33314004 20.8203565,8.04672225 C21.2846304,7.31654511 21.8929892,6.33744395 22.7895181,6.33744395 C23.6540281,6.33744395 24.1343114,6.95145654 24.1343114,7.86417796 C24.1343114,8.84327913 23.5259525,10.9010511 23.9582075,10.9010511 C24.6466136,10.9010511 25.8793408,9.27474744 26.4556807,8.2624564 Z" id="Path"></path>
            <path d="M29.6895884,9.80578535 C30.6341456,10.5359625 29.241324,12.1622661 27.944559,12.1622661 C26.535728,12.1622661 25.8633313,11.432089 25.8633313,10.1044942 C25.8633313,8.84327913 26.7118318,5.82300096 28.2967668,5.82300096 C28.9051257,5.82300096 29.673579,6.13830473 29.673579,6.95145654 C29.673579,7.598659 28.8731068,9.2581525 27.7844646,9.2581525 C27.6083607,9.50707653 27.512304,11.3823042 27.944559,11.3823042 C28.5369084,11.3823042 29.4654562,10.4363929 29.6895884,9.80578535 Z M28.7930596,6.53658317 C28.9371445,7.28335524 28.4568612,8.22926653 27.8965307,8.57776017 C28.0726346,7.91396277 28.3608046,7.03443122 28.7930596,6.53658317 Z" id="Combined-Shape"></path>
        </g>
    </g>
</svg>