<?xml version="1.0" encoding="UTF-8"?>
<svg width="50px" height="25px" viewBox="0 0 50 25" version="1.1" xmlns="http://www.w3.org/2000/svg" xmlns:xlink="http://www.w3.org/1999/xlink">
    <!-- Generator: Sketch 48.2 (47327) - http://www.bohemiancoding.com/sketch -->
    <title>Group 3</title>
    <desc>Created with Sketch.</desc>
    <defs></defs>
    <g id="Page-1" stroke="none" stroke-width="1" fill="none" fill-rule="evenodd">
        <g id="Group-3" fill="#484848">
            <path d="M16.9301114,0.771394946 C15.5693087,4.53291354 14.608742,8.46038148 13.8082698,12.2772165 C13.9416819,12.3878494 14.1284587,12.6091152 14.1284587,12.8027228 C14.1284587,13.1622797 13.6748578,13.0239886 13.621493,13.3005708 C12.7409736,18.0854438 12.2873726,21.1555067 11.9938662,24.2255697 C11.9405014,24.8340507 11.6736773,25 10.9265699,25 C10.1794625,25 9.2188959,24.6681013 9.29894312,23.5894305 C9.51240237,20.823608 10.4462866,15.6791782 10.8998875,13.2175962 C9.88595606,13.2452544 8.87202461,13.1346215 7.21771541,13.2175962 C6.95089134,14.9600643 6.57733765,16.757849 6.23046637,19.9938613 C6.15041915,20.6300005 6.23046637,21.1278485 5.1364877,21.1278485 C4.09587384,21.1278485 2.65502389,20.6023422 2.65502389,19.7725955 C2.65502389,19.4960132 2.70838871,19.2470892 2.70838871,18.9981652 C2.70838871,17.1174059 1.42763319,15.1536719 0.493748963,13.6048113 C0.0668304589,13.0239886 -0.600229704,11.9176596 1.10744431,11.9176596 C2.06801095,11.8623432 3.02857758,12.0006343 4.04250903,11.9176596 C4.46942754,9.31778646 5.24321733,6.38601461 5.99032471,2.76278714 C6.12373674,2.32025554 6.41724321,2.20962264 6.84416172,2.20962264 C7.27108022,2.20962264 9.2188959,2.18196442 9.08548387,3.09468584 C8.8186598,5.03076159 7.72468113,9.09652066 7.51122188,11.9453178 C8.3917413,11.972976 9.27226071,11.9176596 11.1667116,11.9176596 C11.9938662,8.07316633 12.6609263,4.53291354 14.1017763,0.854369621 C14.6621068,-0.583858076 16.316416,0.0799393228 16.9301114,0.771394946 Z" id="Home"></path>
            <path d="M3.74900256,13.1622797 L2.78843592,13.1622797 C3.02857758,13.5218366 3.26871924,13.8813936 3.53554331,14.2409505 C3.58890812,13.8813936 3.66895534,13.5218366 3.74900256,13.1622797 Z" id="Path"></path>
            <path d="M24.0276315,16.2876591 C26.4290481,16.5089249 27.7631684,13.9920265 28.2968166,13.3005708 C28.7504175,13.3005708 29.0972888,13.9643682 28.9905591,14.2686087 C28.0299925,16.8408236 25.2817046,17.7535451 23.5206658,17.3663299 C22.9870177,18.5279754 21.8129918,19.9385448 20.452189,19.9385448 C17.9707252,19.9385448 16.3964633,18.1960767 16.3964633,15.7344946 C16.3964633,14.3239252 16.7166521,11.6687356 18.1041373,11.6687356 C18.611103,11.6687356 19.1180687,11.8070267 19.5449872,12.0282925 C19.6783993,10.4517737 20.452189,9.04120421 22.4000047,9.04120421 C24.2410908,9.04120421 25.2016574,10.2028497 25.2016574,11.8070267 C25.2016574,13.3835455 24.6946917,14.8770897 24.0276315,16.2876591 Z M21.5728501,12.1112672 C21.5194853,12.4155076 21.4928029,12.7474063 21.4928029,13.079305 C21.4928029,13.9643682 21.4928029,14.794115 22.2932751,15.6238617 C23.2538417,13.93671 24.0543139,9.89860918 22.9603353,9.89860918 C22.1865455,9.89860918 21.6528973,11.3921533 21.5728501,12.1112672 Z M21.759627,16.8131654 C20.8524251,16.2600009 19.9452233,15.2089884 19.7050817,14.1579758 C19.4382576,14.4622163 18.8779271,18.4173425 19.8118113,18.4173425 C20.8257427,18.4173425 21.5728501,17.3110135 21.759627,16.8131654 Z" id="Combined-Shape"></path>
            <path d="M44.0928012,13.7707607 C44.3596253,13.9643682 44.6798142,14.2686087 44.5197197,14.8494314 C44.1194836,16.3153174 41.5579726,19.6896208 39.8502986,19.6896208 C38.4628135,19.6896208 37.5022468,18.8322158 37.5022468,16.9791148 C37.5022468,15.1536719 38.7296375,12.1389254 37.8224357,12.1389254 C36.8351867,12.1389254 34.9674182,17.6152539 34.0602164,17.6152539 C33.6332979,17.6152539 32.7260961,17.4769628 32.7260961,16.8131654 C32.7260961,16.5365832 33.0996497,12.8027228 32.6994136,12.6920899 C31.8188942,12.4431659 30.7782804,16.7301907 29.9778082,19.5236715 C29.7910313,20.1874689 29.6042545,20.2981018 29.0706064,20.2981018 C28.3501814,20.2981018 26.615825,20.0491777 26.9360138,19.0534816 C27.4162972,17.5875957 28.590323,10.119875 29.0972888,9.89860918 C29.7376665,9.62202693 31.2585637,10.2028497 31.2585637,10.97728 C31.2585637,11.1708875 31.2051989,11.3644951 31.1785165,11.5857609 C31.5253878,11.4198116 31.9256239,11.3091787 32.32586,11.3091787 C33.8734395,11.3091787 34.5938645,12.2219001 34.7005941,13.4112037 C35.4743839,12.1942418 36.4883154,10.5624066 37.9825301,10.5624066 C39.4233801,10.5624066 40.2238523,11.5857609 40.2238523,13.1069633 C40.2238523,14.7387985 39.2099208,18.1684184 39.9303458,18.1684184 C41.0776893,18.1684184 43.1322346,15.4579124 44.0928012,13.7707607 Z" id="Path"></path>
            <path d="M49.4826474,16.3429756 C51.0569093,17.5599375 48.73554,20.2704435 46.574265,20.2704435 C44.2262133,20.2704435 43.1055522,19.0534816 43.1055522,16.8408236 C43.1055522,14.7387985 44.5197197,9.7050016 47.161278,9.7050016 C48.1752094,9.7050016 49.4559649,10.2305079 49.4559649,11.5857609 C49.4559649,12.6644317 48.1218446,15.4302542 46.307441,15.4302542 C46.0139345,15.8451275 45.8538401,18.970507 46.574265,18.970507 C47.5615141,18.970507 49.1090937,17.3939881 49.4826474,16.3429756 Z M47.9884326,10.8943053 C48.2285742,12.1389254 47.428102,13.7154442 46.4942178,14.2962669 C46.7877243,13.1899379 47.2680076,11.724052 47.9884326,10.8943053 Z" id="Combined-Shape"></path>
        </g>
    </g>
</svg>