<?xml version="1.0" encoding="UTF-8"?>
<svg width="20px" height="20px" viewBox="0 0 20 20" version="1.1" xmlns="http://www.w3.org/2000/svg" xmlns:xlink="http://www.w3.org/1999/xlink">
    <!-- Generator: Sketch 48.2 (47327) - http://www.bohemiancoding.com/sketch -->
    <title>filter_tilt_shift - material</title>
    <desc>Created with Sketch.</desc>
    <defs></defs>
    <g id="Home-Page" stroke="none" stroke-width="1" fill="none" fill-rule="evenodd" transform="translate(-459.000000, -1471.000000)">
        <g id="Group-5" transform="translate(92.000000, 1359.000000)" fill="#3A3A3A">
            <g id="Group" transform="translate(0.000000, 87.000000)">
                <g id="filter_tilt_shift---material">
                    <path d="M371,42.5466667 L372.32287,41 C373.414056,41.9600048 374.639754,42.5466656 376,42.76 L376,45 C374.146478,44.7866656 372.479828,43.968896 371,42.5466667 Z M378,42.76 C379.390141,42.5466656 380.600892,41.9600048 381.632287,41 L383,42.5466667 C381.520172,43.968896 379.853522,44.7866656 378,45 L378,42.76 Z M383,39.6651584 C383.960005,38.5640971 384.546666,37.3423898 384.76,36 L387,36 C386.786666,37.8401299 385.968896,39.5067799 384.546667,41 L383,39.6651584 Z M380,35 C380,35.5280026 379.864001,36.0239977 379.592,36.488 C379.319999,36.9520023 378.952002,37.3199986 378.488,37.592 C378.023998,37.8640014 377.528003,38 377,38 C376.471997,38 375.976002,37.8640014 375.512,37.592 C375.047998,37.3199986 374.680001,36.9520023 374.408,36.488 C374.135999,36.0239977 374,35.5280026 374,35 C374,34.4719974 374.135999,33.9760023 374.408,33.512 C374.680001,33.0479977 375.047998,32.6800014 375.512,32.408 C375.976002,32.1359986 376.471997,32 377,32 C377.528003,32 378.023998,32.1359986 378.488,32.408 C378.952002,32.6800014 379.319999,33.0479977 379.592,33.512 C379.864001,33.9760023 380,34.4719974 380,35 Z M369.24,36 C369.453334,37.3901415 370.039995,38.6008917 371,39.632287 L369.453333,41 C368.031104,39.520172 367.213334,37.853522 367,36 L369.24,36 Z M371,30.32287 C370.039995,31.4140563 369.453334,32.639754 369.24,34 L367,34 C367.213334,32.146478 368.031104,30.479828 369.453333,29 L371,30.32287 Z M384.76,34 C384.546666,32.639754 383.960005,31.4140563 383,30.32287 L384.546667,29 C385.968896,30.479828 386.786666,32.146478 387,34 L384.76,34 Z M383,27.4533333 L381.67713,29 C380.585944,28.0399952 379.360246,27.4533344 378,27.24 L378,25 C379.853522,25.2133344 381.520172,26.031104 383,27.4533333 Z M376,27.24 C374.639754,27.4533344 373.414056,28.0399952 372.32287,29 L371,27.4533333 C372.479828,26.031104 374.146478,25.2133344 376,25 L376,27.24 Z"></path>
                </g>
            </g>
        </g>
    </g>
</svg>