<?xml version="1.0" encoding="UTF-8"?>
<svg width="20px" height="20px" viewBox="0 0 20 20" version="1.1" xmlns="http://www.w3.org/2000/svg" xmlns:xlink="http://www.w3.org/1999/xlink">
    <!-- Generator: Sketch 48.2 (47327) - http://www.bohemiancoding.com/sketch -->
    <title>Combined-Shape</title>
    <desc>Created with Sketch.</desc>
    <defs></defs>
    <g id="Logo" stroke="none" stroke-width="1" fill="none" fill-rule="evenodd" transform="translate(-5.000000, -5.000000)">
        <g id="logo" transform="translate(5.000000, 5.000000)" fill="#000000" fill-rule="nonzero">
            <path d="M15.8128388,13.2666667 C16.356515,12.3013023 16.6666667,11.1868711 16.6666667,10 C16.6666667,6.31810168 13.6818983,3.33333333 10,3.33333333 C6.31810168,3.33333333 3.33333333,6.31810168 3.33333333,10 C3.33333333,11.1868711 3.64348503,12.3013023 4.18716122,13.2666667 L0.545722264,13.2666667 C0.192071027,12.2429655 0,11.1439131 0,10 C0,4.47715249 4.47715249,0 10,0 C15.5228475,0 20,4.47715249 20,10 C20,11.1439131 19.807929,12.2429655 19.4542777,13.2666667 L15.8128388,13.2666667 Z M2.48717338,16.6000003 C2.03713124,16.0881186 1.6385753,15.5298652 1.29959887,14.9333333 L18.7004011,14.9333333 C18.365618,15.5224858 17.9727203,16.074301 17.5295047,16.5809823 C17.5239533,16.5873286 17.518394,16.5936679 17.5128268,16.6 L2.48717317,16.6 L2.48717338,16.6000003 Z M4.37135774,18.2666667 L15.6286423,18.2666667 C14.0253004,19.3604711 12.0873352,20 10,20 C7.91266482,20 5.97469962,19.3604711 4.37135774,18.2666667 Z" id="Combined-Shape"></path>
        </g>
    </g>
</svg>