<?xml version="1.0" encoding="UTF-8"?>
<svg width="18px" height="18px" viewBox="0 0 18 18" version="1.1" xmlns="http://www.w3.org/2000/svg" xmlns:xlink="http://www.w3.org/1999/xlink">
    <!-- Generator: Sketch 48.2 (47327) - http://www.bohemiancoding.com/sketch -->
    <title>all - material</title>
    <desc>Created with Sketch.</desc>
    <defs></defs>
    <g id="Home-Page" stroke="none" stroke-width="1" fill="none" fill-rule="evenodd" transform="translate(-868.000000, -1841.000000)">
        <g id="Group-5" transform="translate(92.000000, 1359.000000)" fill="#FFFFFF">
            <g id="Group" transform="translate(464.000000, 87.000000)">
                <g id="Gallery_Icon">
                    <g transform="translate(291.000000, 374.000000)">
                        <path d="M37,29 L37,23 L31,23 L31,29 L37,29 Z M37,37 L37,31 L31,31 L31,37 L37,37 Z M29,29 L29,23 L23,23 L23,29 L29,29 Z M29,37 L29,31 L23,31 L23,37 L29,37 Z M21,21 L39,21 L39,39 L21,39 L21,21 Z" id="all---material"></path>
                    </g>
                </g>
            </g>
        </g>
    </g>
</svg>